<svg xmlns="http://www.w3.org/2000/svg" viewBox="0 0 360 110" fill="none">
  <rect x="12" y="22" width="336" height="56" rx="5" fill="#1a2332" stroke="#3d4f66" stroke-width="2"/>
  <!-- RJ45 row -->
  <g fill="#475569">
    <rect x="28" y="38" width="14" height="10" rx="1"/>
    <rect x="46" y="38" width="14" height="10" rx="1"/>
    <rect x="64" y="38" width="14" height="10" rx="1"/>
    <rect x="82" y="38" width="14" height="10" rx="1"/>
    <rect x="100" y="38" width="14" height="10" rx="1"/>
    <rect x="118" y="38" width="14" height="10" rx="1"/>
    <rect x="136" y="38" width="14" height="10" rx="1"/>
    <rect x="154" y="38" width="14" height="10" rx="1"/>
    <rect x="172" y="38" width="14" height="10" rx="1"/>
    <rect x="190" y="38" width="14" height="10" rx="1"/>
    <rect x="208" y="38" width="14" height="10" rx="1"/>
    <rect x="226" y="38" width="14" height="10" rx="1"/>
  </g>
  <!-- SFP+ cages -->
  <rect x="258" y="36" width="28" height="14" rx="2" fill="#0f172a" stroke="#64748b" stroke-width="1"/>
  <rect x="292" y="36" width="28" height="14" rx="2" fill="#0f172a" stroke="#64748b" stroke-width="1"/>
  <circle cx="332" cy="43" r="4" fill="#22c55e"/>
  <text x="180" y="98" text-anchor="middle" fill="#94a3b8" font-family="system-ui,sans-serif" font-size="11">MikroTik Switch</text>
</svg>
